<?xml version="1.0" encoding="utf-8"?>
<!-- Generator: Adobe Illustrator 21.0.0, SVG Export Plug-In . SVG Version: 6.00 Build 0)  -->
<svg version="1.1" id="Capa_1" xmlns="http://www.w3.org/2000/svg" xmlns:xlink="http://www.w3.org/1999/xlink" x="0px" y="0px"
	 viewBox="0 0 400 400" style="enable-background:new 0 0 400 400;" xml:space="preserve">
<style type="text/css">
	.st0{fill:#727272;}
	.st1{fill:#9B9B9B;}
	.st2{fill:#D1628D;}
	.st3{fill:#D1618D;}
	.st4{stroke:#000000;stroke-width:2;stroke-miterlimit:100;}
</style>
<g>
	<g>
		<g>
			<path d="M90.8,211.5c-1.6-0.8-3.2-0.4-4.5,1.2c-0.7-0.1-0.3-0.6-0.3-0.9c0.5-5.9,0.9-11.9,1.4-17.8c0.4-4.1-2-6.3-6-5.4
				c-3.9,0.9-7.7,2.3-11.4,3.6c-1.1,0.4-2,0.9-2.5,2c-0.9-1.1-1.6-2.2-2.6-3.1c-4.5-3.7-10.6-3.8-15.6-0.3c-2.2,1.5-4.1,3.3-5.8,5.4
				c-6.5,8.1-9.2,17.1-6.9,27.3c2.2,9.3,11.8,13.8,20.2,7.7c2.9-2.1,5.3-4.7,7.1-7.7c4.3-7,6.5-14.5,5.7-22.8c1.7,0.9,3.3-0.3,5-0.7
				c-0.2,5.7-0.8,11.3-1.4,16.9c-0.4,3.5-0.8,7.1-1,10.6c-0.2,3.2,1.3,5.2,4.1,5.6c1.5,0.3,2.9-0.2,4.1-1.1
				c4.5-3.2,8.4-7.1,11.4-11.8c0.8-1.2,1.5-2.5,1.8-4C94.2,214.4,93.1,212.6,90.8,211.5z M60.3,213.6c-0.4,0.7-0.7,1.4-1.1,2.1
				c0-0.1-1.1,2.2-0.8,1.4c-0.7,1.7-0.6,1.2-0.4,3.1c0.6,4.4-4.2,8.1-8.1,8.1c-4.8,0-7.6-3.8-8.1-8.1c-0.5-4,0.9-7.9,2.7-11.4
				c1.5-2.9,2.7-4.7,2.6-6.8c-0.3-4.4,3.9-8.1,8.1-8.1c4.6,0,7.8,3.7,8.1,8.1C63.6,206.1,62.2,210,60.3,213.6z"/>
		</g>
		<g>
			<path d="M114.9,205c-3.5,4.6-6.6,9.3-7.7,15c-0.4,2.1-0.4,4.4-0.5,6.6c-0.3,5.3-5.7,8.2-10.3,5.5c-1.7-1-2.2-2.5-2-4.4
				c0.7-8.3,1.3-16.5,1.7-24.8c0-0.8,0-1.6,0-2.6c-0.7,0-1.4,0.4-2.2,0.3c-2-0.3-3.4-1.9-3.8-4.6c-0.3-1.7,0.6-3,2.5-3.8
				c3.6-1.4,7.2-3,11-3.8c3.5-0.8,6.1,1.4,5.8,5.1c-0.1,1.5-0.3,2.9-0.5,4.8c1.3-1.6,2.3-2.9,3.5-4.1c2.4-2.6,4.9-5,8.6-5.7
				c2.8-0.5,5.2,0.9,6,3.6c0.8,2.6,0.9,5.3,0.7,8c-0.3,3.9-0.5,7.8-1.2,11.6c-0.2,1,0.5,0.6,0.9,0.6c1.5-0.2,2.7,0.4,3.8,1.3
				c1.4,1.1,1.8,2.3,1.2,4c-0.4,1.4-1.2,2.7-2,3.9c-2.4,3.8-5,7.6-8.8,10.3c-1.5,1.1-3.1,1.9-5,1.5c-2.6-0.5-3.9-2.3-3.9-5.4
				c0.1-3.9,0.8-7.8,1.2-11.6c0.4-3.2,0.7-6.5,1.1-9.8C115,206,115.1,205.5,114.9,205z"/>
		</g>
		<g>
			<path d="M21.5,200.3c-1.2,0.4-2.3,0.7-3.4,1.1c-0.8,0.3-1.5,0.1-2.1-0.2c-2.1-1.2-2.4-3.4-2.6-5.4c-0.2-1.6,1-2.6,2.5-3.2
				c4.2-1.6,8.4-3.3,12.9-4.3c3.9-0.9,6.2,1.5,5.9,5.1c-0.6,8.9-1.5,17.8-2.1,26.7c-0.4,6.1-0.8,12.2-1.6,18.2
				c-0.4,2.9-0.9,5.7-1.8,8.4c-2.6,8.6-12.8,12.9-20.7,9.3c-5.3-2.4-7.1-8.2-3.9-12.6c2.7-3.7,7.7-3.4,10,0.7c0.6,1,1,2.1,1.5,3.3
				c1.2-1.8,1.7-3.6,2-5.5c1.6-11,2.1-22,2.9-33.1C21.2,206,21.4,203.2,21.5,200.3z"/>
		</g>
		<g>
			<path d="M148.1,219.4c1.2-0.9,2.2-2,3.2-3.1c1.4-1.6,3.4-1.9,5-0.7c2.5,1.8,3.4,4,2.1,5.9c-3.9,5.7-9,9.9-15.8,11.5
				c-3.1,0.8-6.2-1.1-7.2-4.2c-0.9-2.9-0.4-5.8-0.4-8.7c0.1-6.8,0.7-13.6,1.6-20.4c0.1-1.1-0.2-1.3-1.1-1.2c-0.8,0.1-1.6,0-2.3-0.1
				c-2.3-0.3-3.5-1.9-3.2-4.2c0.5-4.6,1.2-5.2,5.9-5.2c2.4,0,2.4,0,2.8-2.4c0.7-5,2.3-6.7,7.3-7.9c1.2-0.3,2.3-0.3,3.4,0.2
				c1.6,0.7,2.5,2.6,2.2,4.5c-0.2,1.4-0.4,2.9-0.8,4.3c-0.4,1.3,0.2,1.3,1.2,1.3c1.3,0,2.5-0.2,3.8,0.2c1.2,0.3,2.1,1.1,2.4,2.3
				c0.4,1.8,0,3.6-0.7,5.3c-0.6,1.3-1.9,1.6-3.2,1.7c-1.3,0-2.5,0.1-3.8,0c-0.9,0-1.3,0.2-1.4,1.1c-0.6,6.4-1.2,12.8-1.1,19.3
				C148,219,148,219.1,148.1,219.4z"/>
		</g>
		<g>
			<path d="M37.6,170c0,3.4-4,7.5-7.3,7.4c-3.4-0.1-6.2-4.1-6.3-7.4c-0.1-3.5,3.6-7.1,7-7.1C34.4,162.8,37.5,166.2,37.6,170z"/>
		</g>
		<g>
			<path d="M85.5,162.8c2.4,0,4.8,1.7,5.9,4.3c1.2,2.9,0.6,5.7-1.7,7.8c-0.9,0.8-1.7,1.6-2.9,2c-3.1,1-5.5-0.2-7.4-3.6
				C76.6,168.1,81.5,162.8,85.5,162.8z"/>
		</g>
		<g>
			<path class="st0" d="M114.9,205c0-0.2,0.1-0.6,0.2-0.1c0.1,0.5,0.1,1.1-0.2,1.6C114.9,206,114.9,205.5,114.9,205z"/>
		</g>
		<g>
			<path class="st1" d="M86.4,212.7c-0.1,0.2-0.3,0.5-0.4,0.5c-0.3,0-0.1-0.3-0.1-0.4c0-0.3,0-0.7,0.2-1
				C86.3,212,86,212.5,86.4,212.7z"/>
		</g>
		<g>
			<path class="st2" d="M78,200.3c0-1,0-2,0-2.9c0-1.2-0.7-1.6-1.7-1.3c-1.5,0.3-2.9,0.8-4.3,1.4c-0.6,0.3-1.1,0.3-1.1-0.5
				c0-0.6-1.2-1.4,0.2-1.9c3.6-1.2,7.2-2.6,10.9-3.5c2-0.5,2.5,0,2.3,2.1c-0.7,8.5-1.4,16.9-2.1,25.4c-0.1,0.9-0.5,2.3,0.5,2.7
				c1,0.4,1.6-0.9,2.2-1.6c1.4-1.6,2.5-3.4,3.7-5.1c0.2-0.3,0.3-1.1,1-0.5c0.5,0.4,1.4,0.6,0.9,1.7c-1.1,2.2-2.3,4.2-3.9,6
				c-1.9,2.1-3.9,4.2-6.2,6c-0.7,0.5-1.4,1.1-2.2,1.5c-1.6,0.8-2.8,0.1-2.7-1.7c0.1-2.7,0.4-5.4,0.7-8.2
				C77,213.3,77.6,206.8,78,200.3z"/>
		</g>
		<g>
			<path class="st2" d="M104.7,211c1.9-3.1,3.7-5.9,5.5-8.7c1.9-2.9,4.1-5.8,6.7-8.1c1.1-1,2.3-1.8,3.7-2.3c2-0.7,2.9-0.2,3.4,1.9
				c0.4,1.5,0.5,3.1,0.4,4.6c-0.2,6.5-1.3,13-1.8,19.5c-0.1,1-0.1,1.9,0,2.9c0,0.3,0.1,0.7,0.5,0.9c0.5,0.2,0.7-0.2,1-0.5
				c1.2-1.5,2.2-3.1,3.1-4.8c0.4-0.7,0.7-1.1,1.5-0.6c0.9,0.5,0.5,1,0.2,1.5c-2.3,4.4-5.1,8.5-9,11.6c-0.9,0.7-2,1.8-3.3,1.1
				c-1.2-0.7-0.9-2.2-0.8-3.4c0.7-7.7,2.1-15.3,2.5-23c0-1.1,0-2.3-0.3-3.3c-0.4-1.7-1.2-2-2.6-0.9c-2,1.7-3.4,3.7-4.8,5.8
				c-2.3,3.4-4.4,7-5.9,10.9c-1.2,3.3-1.1,6.8-1.3,10.3c-0.2,2.8-2.8,4.3-5.3,3c-0.7-0.4-0.6-1-0.6-1.6c0.3-4.5,0.7-9,1-13.6
				c0.3-5.2,0.5-10.3,0.8-15.5c0-0.4,0-0.8-0.1-1.2c-0.1-1.1-0.7-1.6-1.8-1.2c-0.9,0.3-1.9,0.6-2.8,1c-1.1,0.5-1-0.4-1.4-0.9
				c-0.4-0.7-0.1-0.9,0.5-1.1c3.2-1.2,6.4-2.6,9.8-3.5c2.1-0.5,2.6,0,2.4,2.1c-0.5,5.1-1.2,10.2-1.4,15.3
				C104.7,209.6,104.7,210.2,104.7,211z"/>
		</g>
		<g>
			<path class="st2" d="M24.8,200.1c0.2-4.4,0-4.5-3.9-3.1c-0.8,0.3-1.5,0.6-2.3,0.9c-0.4,0.1-0.9,0.7-1.3,0.2
				c-0.4-0.6-0.5-1.3-0.7-2.1c-0.1-0.4,0.4-0.4,0.6-0.5c3.9-1.5,7.8-3.1,11.9-4.1c2-0.5,2.5,0,2.3,2.2c-1,11.1-1.9,22.3-2.6,33.4
				c-0.4,5.8-0.9,11.7-2.3,17.4c-1.5,6-6.1,9.6-12.2,9.7c-2.4,0-4.6-0.7-6.5-2.3c-2-1.7-2.2-4.6-0.6-6.7c1.3-1.6,3.2-1.5,4.2,0.3
				c0.6,1,0.9,2,1.4,3.1c0.6,1.3,1.6,2.1,3,2.2c1.4,0.1,2.4-0.7,3.1-1.9c1.6-2.6,2.1-5.5,2.5-8.5c1.4-10.5,1.9-21,2.7-31.5
				C24.4,205.8,24.6,202.8,24.8,200.1z"/>
		</g>
		<g>
			<path class="st2" d="M144.7,215.1c0.1,2.4-0.2,4.6,0.3,6.8c0.5,2.1,1.5,2.6,3.3,1.4c1.9-1.3,3.6-2.9,5.1-4.6
				c0.3-0.3,0.6-1,1.1-0.3c0.4,0.5,1.6,0.7,0.8,1.8c-3.3,4.6-7.6,8-13.1,9.7c-2,0.6-3.6-0.4-4.1-2.7c-0.5-2.4-0.1-4.8,0-7.2
				c0.2-8,0.9-15.9,2.1-23.8c0.1-0.9-0.2-1.1-1-1.1c-1.7,0-3.4,0-5.1,0c-0.8,0-1.2-0.1-1-1.1c0.3-2,0.2-2,2.2-2c1.5,0,3,0,4.5,0
				c0.7,0,1-0.2,1.1-0.9c0.3-2.1,0.8-4.1,1-6.2c0.1-1,0.6-1.5,1.4-1.9c1-0.5,2.1-1.1,3.2-1.3c1.4-0.4,2,0.1,1.7,1.5
				c-0.4,2.6-0.8,5.1-1.4,7.6c-0.3,1.2,0.1,1.3,1.1,1.3c1.9-0.1,3.8,0,5.7,0c0.5,0,1.5-0.3,1.2,0.8c-0.2,0.8,0.4,2.2-1.3,2.2
				c-2,0-3.9,0.1-5.9,0c-1.1-0.1-1.6,0.2-1.7,1.4C145.5,202.9,144.8,209.1,144.7,215.1z"/>
		</g>
		<g>
			<path class="st3" d="M34.3,170c0,1.6-2.6,4.1-4.1,4.1c-1.2-0.1-3.1-2.7-3.1-4.2c0.1-1.7,2.2-3.9,3.8-3.9
				C32.6,166,34.4,168.1,34.3,170z"/>
		</g>
		<g>
			<path class="st3" d="M88.9,169.9c0,1.6-2.4,4.2-4,4.2c-1.3,0-3.2-2.4-3.2-4.1c0-1.7,2.1-3.9,3.7-4
				C87.1,165.9,88.9,167.9,88.9,169.9z"/>
		</g>
		<g>
			<path class="st2" d="M66.1,199.5c-1.1-4.7-4-7.6-8.3-8.1c-3-0.3-5.6,0.9-7.9,2.8c-6,5-9.7,11.3-10.7,19.1
				c-0.5,3.8-0.6,7.6,1.1,11.2c1.6,3.6,4.1,6,8.3,6.2c2.9,0.1,5.2-1.1,7.3-2.9c6.8-5.8,9.8-13.5,10.7-22.2
				C66.8,203.5,66.6,201.5,66.1,199.5z M56.7,222.2c-0.6,1.2-1.4,2.4-2.3,3.4c-2,2-4.1,1.9-5.9-0.3c-1.6-2.1-2.3-4.6-2.7-7.2
				c-1-6.7,0.1-13.1,3.5-19c0.7-1.3,1.7-2.4,2.8-3.4c2-1.8,4-1.6,5.7,0.6c1.1,1.4,1.6,3.1,2,4.8c0.5,2,0.7,4.1,0.7,6.3
				C60.3,212.6,59,217.6,56.7,222.2z"/>
			<path d="M57.7,196.3c-1.7-2.1-3.6-2.3-5.7-0.6c-1.1,1-2,2.1-2.8,3.4c-3.4,5.9-4.5,12.3-3.5,19c0.4,2.6,1,5.1,2.7,7.2
				c1.7,2.2,3.9,2.3,5.9,0.3c1-1,1.7-2.1,2.3-3.4c2.4-4.7,3.7-9.6,3.7-14.9c0.1-2.1-0.2-4.2-0.7-6.3
				C59.3,199.4,58.8,197.7,57.7,196.3z M53.1,222c-0.4,0.7-0.8,1.6-1.6,1.6c-0.9,0-1.2-1.1-1.4-1.9c-2.6-8-1.8-15.6,3.1-22.5
				c1.2-1.7,1.7-2.2,2.8,0.5c1,2.4,1.2,5,1.2,6.6C57.2,212.6,55.8,217.4,53.1,222z"/>
		</g>
	</g>
</g>
<g>
	<path class="st4" d="M167.9,224c0.4-0.9,1-1.5,1.8-1.7c0.8-0.2,1.7,0.3,2.6,1.7c0,0.2,0.4,0.4,1.1,0.6c0.7,0.3,1.6,0.6,2.7,0.9
		c1.1,0.3,2.4,0.7,3.9,1c1.5,0.3,2.9,0.6,4.4,0.9c1.4,0.3,2.9,0.5,4.2,0.7c1.4,0.2,2.5,0.3,3.5,0.3c2.6,0,5-0.6,7.1-1.7
		c2.2-1.1,4-2.5,5.6-4.3c1.6-1.8,2.8-3.7,3.6-6c0.8-2.2,1.3-4.5,1.3-6.9c0-0.7-0.1-1.9-0.3-3.6c-0.2-1.7-0.6-3.4-1.1-5.1
		c-0.5-1.7-1.2-3.3-2.1-4.6c-0.9-1.4-1.9-2.1-3.1-2.1c-7.9,0.9-14.4,1.3-19.5,1.1c-5.1-0.2-9.1-0.8-12-1.8c-3-1-5-2.3-6.2-4.1
		c-1.2-1.7-1.8-3.7-1.9-5.9c0-2.7,0.7-5.4,2.1-7.9c1.4-2.5,3.1-4.8,5.3-6.8c2.1-2,4.5-3.6,7.1-4.7c2.6-1.2,5.2-1.8,7.8-1.8
		c2.1,0,4.4,0.3,6.7,0.8c2.3,0.5,4.5,1.4,6.5,2.5c2,1.1,3.6,2.6,4.9,4.3c1.3,1.8,1.9,3.9,1.9,6.5c-1.8,0-3.5-0.5-5-1.5
		c-1.5-1-3-2.1-4.6-3.3c-1.5-1.1-3.1-2.2-4.8-3.3c-1.7-1-3.6-1.5-5.8-1.5c-1.8,0-3.7,0.5-5.5,1.4c-1.9,0.9-3.5,2.1-5,3.5
		c-1.5,1.4-2.7,3.1-3.7,4.9c-1,1.8-1.4,3.6-1.4,5.5c0,0.8,0,1.6,0.1,2.5c0,0.9,0.2,1.7,0.5,2.5c0.3,0.8,0.8,1.5,1.4,2
		c0.6,0.5,1.6,0.8,2.8,0.8h30.7c1.3,0,2.4,0.4,3.4,1.2c1,0.8,1.8,1.8,2.4,3c0.6,1.2,1.2,2.6,1.6,4.1c0.4,1.5,0.8,3,1,4.5
		c0.3,1.4,0.4,2.8,0.5,4.1c0.1,1.3,0.1,2.2,0.1,2.9c0,3-0.4,5.8-1.3,8.4c-0.8,2.6-2.1,5-3.8,7.1c-1.7,2.1-3.8,3.8-6.3,5.1
		c-2.5,1.3-5.4,2.2-8.7,2.5c-1.6,0.2-3.7,0.1-6.2-0.1c-2.6-0.2-5.1-0.7-7.7-1.3c-2.6-0.6-5-1.6-7.3-2.7
		C170.6,227.4,168.9,225.9,167.9,224z"/>
	<path class="st4" d="M219.9,213.2c0-2.8,0.5-5.9,1.4-9.4s2.2-6.6,4-9.5c1.8-2.9,3.9-5.4,6.5-7.4c2.6-2,5.6-3,9-3
		c1.8-0.2,3.2-0.1,4.2,0.5c1.1,0.6,1.9,1.5,2.5,2.7c0.6,1.2,1,2.6,1.1,4.2c0.2,1.6,0.3,3.2,0.3,4.8c0,1.6,0,3.2,0,4.6
		c0,1.4,0,2.6,0.2,3.5h-2.9c-0.1-0.5-0.2-1.5-0.4-3.3c-0.2-1.7-0.5-3.5-1-5.3c-0.5-1.8-1.1-3.5-1.9-4.9c-0.8-1.4-1.9-2.2-3.4-2.2
		c-2.1,0-4.1,0.8-6,2.5c-1.9,1.7-3.5,3.7-4.9,6.1c-1.4,2.4-2.5,4.8-3.3,7.3c-0.8,2.5-1.3,4.6-1.3,6.3c0.1,1.9,0.3,4,0.8,6.2
		c0.5,2.2,1.2,4.3,2.2,6.1c1,1.8,2.4,3.3,4.1,4.5c1.7,1.1,3.7,1.5,6.2,1c1.8,0,3.6-0.4,5.3-1.1c1.7-0.8,3.3-1.6,4.9-2.4
		c1.6-0.8,3.2-1.6,4.9-2.4c1.6-0.8,3.4-1.1,5.2-1.1c0,2-0.7,3.7-2.2,5.2c-1.4,1.5-3.2,2.7-5.3,3.6c-2.1,0.9-4.3,1.6-6.6,2.1
		c-2.3,0.5-4.3,0.7-5.9,0.7c-2.6,0-5-0.5-7.1-1.6c-2.2-1.1-4.1-2.5-5.7-4.3c-1.6-1.8-2.8-3.9-3.7-6.3
		C220.4,218.4,219.9,215.9,219.9,213.2z"/>
	<path class="st4" d="M267.4,154.4l3,37.4c0.5-0.5,1.2-1.1,2.1-2.1c0.8-0.9,1.8-1.8,3-2.6c1.1-0.8,2.4-1.5,3.8-2.1
		c1.4-0.6,2.9-0.8,4.5-0.7c3.1,0.3,5.6,1.6,7.5,3.8c1.9,2.2,3.3,4.9,4.2,8.1c1,3.2,1.6,6.7,1.9,10.4c0.3,3.8,0.4,7.4,0.3,10.8
		s-0.3,6.5-0.6,9.1c-0.3,2.7-0.5,4.5-0.6,5.5l-4.1-0.6c0-0.7,0-1.8,0.1-3.3c0-1.5,0.1-3.2,0.2-5.3c0.1-2,0.1-4.1,0.1-6.3
		c0-2.2,0-4.3,0.1-6.2c0-1.9,0-3.7,0-5.2c0-1.5-0.1-2.6-0.2-3.2c0.1-2.1-0.3-4.2-1.3-6.2c-0.9-2-2.1-3.5-3.7-4.5
		c-1.5-1-3.4-1.4-5.5-1c-2.1,0.3-4.4,1.8-6.8,4.5c-2.1,3.2-3.7,6.3-4.7,9.4c-1,3.1-1.6,6.1-1.9,9.1c-0.3,3-0.4,6.1-0.3,9.2
		c0.1,3.2,0.1,6.5,0,10l-4.5-0.7c0.2-0.8,0.4-2.4,0.5-4.6c0.1-2.2,0.2-4.9,0.3-8.1c0.1-3.2,0.1-6.7,0.2-10.6c0-3.9,0-7.9,0-12
		c0-4.1-0.1-8.3-0.2-12.5c-0.1-4.2-0.2-8.2-0.3-12c-0.1-3.8-0.2-7.3-0.3-10.5c-0.1-3.2-0.2-5.8-0.3-7.9L267.4,154.4z"/>
	<path class="st4" d="M302.7,211.8c0-1.8,0.2-3.8,0.5-6.1c0.3-2.3,0.8-4.7,1.5-7c0.7-2.4,1.5-4.7,2.6-7c1-2.3,2.3-4.3,3.7-6.1
		c1.4-1.8,3.1-3.2,5-4.3c1.9-1.1,4-1.7,6.4-1.7c2.4,0,4.7,0.8,6.8,2.5c2.1,1.7,3.9,3.8,5.4,6.5c1.5,2.7,2.6,5.6,3.4,8.9
		c0.8,3.3,1.1,6.5,0.9,9.6c0,4.6-0.9,8.6-2.6,12.2c-1.8,3.6-4,6.5-6.7,8.7c-2.7,2.2-5.6,3.7-8.7,4.5c-3.1,0.8-6,0.6-8.7-0.6
		c-2.7-1.2-4.9-3.4-6.7-6.7C303.6,221.9,302.7,217.5,302.7,211.8z M306.9,212.3c0.2,4.6,1,8.2,2.4,10.7s3,4.2,5,5s4.1,0.8,6.3,0.1
		c2.3-0.8,4.4-2.1,6.4-4.1c2-1.9,3.7-4.4,5.1-7.3c1.4-2.9,2.2-6.2,2.3-9.9c0.2-2.7-0.1-5.4-0.6-8c-0.6-2.6-1.4-4.9-2.4-6.9
		c-1-2-2.3-3.6-3.8-4.8c-1.5-1.2-3.2-1.8-5.1-1.8c-1.8,0-3.5,0.5-4.9,1.4c-1.4,0.9-2.8,2.2-3.9,3.7c-1.2,1.6-2.2,3.3-3,5.3
		c-0.8,2-1.5,4-2.1,5.9c-0.6,2-1,3.9-1.3,5.8C307.1,209.3,306.9,210.9,306.9,212.3z"/>
	<path class="st4" d="M345.1,211.8c0-1.8,0.2-3.8,0.5-6.1c0.3-2.3,0.8-4.7,1.5-7c0.7-2.4,1.5-4.7,2.6-7c1-2.3,2.3-4.3,3.7-6.1
		c1.4-1.8,3.1-3.2,5-4.3c1.9-1.1,4-1.7,6.4-1.7c2.4,0,4.7,0.8,6.8,2.5c2.1,1.7,3.9,3.8,5.4,6.5c1.5,2.7,2.6,5.6,3.4,8.9
		c0.8,3.3,1.1,6.5,0.9,9.6c0,4.6-0.9,8.6-2.6,12.2c-1.8,3.6-4,6.5-6.7,8.7c-2.7,2.2-5.6,3.7-8.7,4.5c-3.1,0.8-6,0.6-8.7-0.6
		c-2.7-1.2-4.9-3.4-6.7-6.7C345.9,221.9,345.1,217.5,345.1,211.8z M349.3,212.3c0.2,4.6,1,8.2,2.4,10.7c1.4,2.5,3,4.2,5,5
		s4.1,0.8,6.3,0.1c2.3-0.8,4.4-2.1,6.4-4.1c2-1.9,3.7-4.4,5.1-7.3c1.4-2.9,2.2-6.2,2.3-9.9c0.2-2.7-0.1-5.4-0.6-8
		c-0.6-2.6-1.4-4.9-2.4-6.9c-1-2-2.3-3.6-3.8-4.8c-1.5-1.2-3.2-1.8-5.1-1.8c-1.8,0-3.5,0.5-4.9,1.4c-1.4,0.9-2.8,2.2-3.9,3.7
		c-1.2,1.6-2.2,3.3-3,5.3c-0.8,2-1.5,4-2.1,5.9c-0.6,2-1,3.9-1.3,5.8C349.4,209.3,349.3,210.9,349.3,212.3z"/>
	<path class="st4" d="M389.7,144c1.1,0.2,2,0.4,2.8,0.9c0.8,0.4,1.4,1.2,1.9,2.2c0,1.4,0.1,3.4,0.2,6c0.1,2.6,0.2,5.5,0.3,8.8
		c0.1,3.4,0.2,7,0.4,10.8c0.2,3.9,0.3,7.8,0.5,11.8c0.2,4,0.3,7.9,0.4,11.8c0.1,3.9,0.2,7.5,0.3,10.8c0.1,3.4,0.2,6.3,0.3,8.9
		c0.1,2.6,0.2,4.6,0.2,5.9c0,0.2,0,0.4-0.1,0.8c0,0.4-0.1,0.8-0.1,1.4c0,0.5-0.1,1-0.1,1.5c0,0.5-0.1,0.9-0.1,1.1
		c-0.1,0.5-0.1,1-0.1,1.7c0,0.6-0.1,1.3-0.2,1.9c-0.2,0.6-0.4,1.2-0.7,1.7c-0.3,0.5-0.9,0.8-1.7,0.9l-1.9-2.4
		c-0.1-0.1-0.2-1.5-0.3-4.3c-0.1-2.8-0.3-6.4-0.5-10.8c-0.2-4.5-0.4-9.5-0.5-15.1c-0.2-5.6-0.3-11.2-0.5-17
		c-0.2-5.7-0.4-11.2-0.5-16.4c-0.2-5.3-0.3-9.8-0.3-13.6c0-0.3,0-0.9,0.1-1.8c0-0.9,0.1-1.8,0.1-2.8c0-1,0.1-1.9,0.1-2.7
		C389.7,145,389.7,144.4,389.7,144z"/>
</g>
<g>
</g>
<g>
</g>
<g>
</g>
<g>
</g>
<g>
</g>
<g>
</g>
<g>
</g>
<g>
</g>
<g>
</g>
<g>
</g>
<g>
</g>
<g>
</g>
<g>
</g>
<g>
</g>
<g>
</g>
</svg>
